# xmcd
#
# Track frame offsets: 
#        150
#        17465
#        31612
#        52967
#        70162
#        90570
#        101660
#        122470
#        137637
#        155675
#        173470
#        194025
#        209425
#        224720
#        243040
#        260632
#        280195
#        291612
#
# Disc length: 4092 seconds
#
# Revision: 0
# Processed by: cddbd v1.5.2PL0 Copyright (c) Steve Scherf et al.
# Submitted via: ExactAudioCopy v0.99pb3
#
DISCID=070ffa12
DTITLE=Skolars - A-Z
DYEAR=1995
DGENRE=Red Meat
TTITLE0=Where Is She?
TTITLE1=Love Of Loves
TTITLE2=Living On Top Of A Shop
TTITLE3=Ocean Dream
TTITLE4=Trespassers
TTITLE5=Wait For Me
TTITLE6=Hammer In The Nails
TTITLE7=Thunder Wakes The Town
TTITLE8=No Room For Happiness
TTITLE9=Precious Love
TTITLE10=Another World
TTITLE11=Pretty Pretty
TTITLE12=Count The Days
TTITLE13=Time Of Our Lives
TTITLE14=I Don't Know Why
TTITLE15=Something (Should Be Done)
TTITLE16=Young And Liberal
TTITLE17=In The Half Light
EXTD=
EXTT0=
EXTT1=
EXTT2=
EXTT3=
EXTT4=
EXTT5=
EXTT6=
EXTT7=
EXTT8=
EXTT9=
EXTT10=
EXTT11=
EXTT12=
EXTT13=
EXTT14=
EXTT15=
EXTT16=
EXTT17=
PLAYORDER=
